HIERARCHY
ROOT hip
{
  OFFSET 58.9102 27.8288 94.7501
  CHANNELS 6 Xposition Yposition Zposition Zrotation Xrotation Yrotation
  JOINT abdomen
  {
    OFFSET 0 20.6881 -0.73152
    CHANNELS 3 Zrotation Xrotation Yrotation
    JOINT chest
    {
      OFFSET 0 11.7043 -0.48768
      CHANNELS 3 Zrotation Xrotation Yrotation
      JOINT neck
      {
        OFFSET 0 22.1894 -2.19456
        CHANNELS 3 Zrotation Xrotation Yrotation
        JOINT head
        {
          OFFSET -0.24384 7.07133 1.2192
          CHANNELS 3 Zrotation Xrotation Yrotation
          JOINT leftEye
          {
            OFFSET 4.14528 8.04674 8.04672
            CHANNELS 3 Zrotation Xrotation Yrotation
            End Site
            {
              OFFSET 1 0 0
            }
          }
          JOINT rightEye
          {
            OFFSET -3.6576 8.04674 8.04672
            CHANNELS 3 Zrotation Xrotation Yrotation
            End Site
            {
              OFFSET 1 0 0
            }
          }
        }
      }
      JOINT rCollar
      {
        OFFSET -2.68224 19.2634 -4.8768
        CHANNELS 3 Zrotation Xrotation Yrotation
        JOINT rShldr
        {
          OFFSET -8.77824 -1.95073 1.46304
          CHANNELS 3 Zrotation Xrotation Yrotation
          JOINT rForeArm
          {
            OFFSET -28.1742 -1.7115 0.48768
            CHANNELS 3 Zrotation Xrotation Yrotation
            JOINT rHand
            {
              OFFSET -22.5879 0.773209 7.07136
              CHANNELS 3 Zrotation Xrotation Yrotation
              JOINT rThumb1
              {
                OFFSET -1.2192 -0.487915 3.41376
                CHANNELS 3 Zrotation Xrotation Yrotation
                JOINT rThumb2
                {
                  OFFSET -3.37035 -0.52449 3.41376
                  CHANNELS 3 Zrotation Xrotation Yrotation
                  End Site
                  {
                    OFFSET -1.78271 -1.18214 1.43049
                  }
                }
              }
              JOINT rIndex1
              {
                OFFSET -7.75947 0.938293 5.60832
                CHANNELS 3 Zrotation Xrotation Yrotation
                JOINT rIndex2
                {
                  OFFSET -2.54057 -0.884171 1.56538
                  CHANNELS 3 Zrotation Xrotation Yrotation
                  End Site
                  {
                    OFFSET -1.62519 -0.234802 1.16502
                  }
                }
              }
              JOINT rMid1
              {
                OFFSET -8.24714 1.18213 3.41376
                CHANNELS 3 Zrotation Xrotation Yrotation
                JOINT rMid2
                {
                  OFFSET -3.10165 -0.590103 1.0647
                  CHANNELS 3 Zrotation Xrotation Yrotation
                  End Site
                  {
                    OFFSET -2.48547 -0.328903 0.83742
                  }
                }
              }
              JOINT rRing1
              {
                OFFSET -8.82822 0.546677 1.51678
                CHANNELS 3 Zrotation Xrotation Yrotation
                JOINT rRing2
                {
                  OFFSET -2.60934 -0.819778 -0.0198488
                  CHANNELS 3 Zrotation Xrotation Yrotation
                  End Site
                  {
                    OFFSET -2.33842 -0.294052 0.168128
                  }
                }
              }
              JOINT rPinky1
              {
                OFFSET -8.27202 -0.0477905 -0.4584
                CHANNELS 3 Zrotation Xrotation Yrotation
                JOINT rPinky2
                {
                  OFFSET -1.82734 -0.647385 -0.700984
                  CHANNELS 3 Zrotation Xrotation Yrotation
                  End Site
                  {
                    OFFSET -1.69225 -0.51767 -0.607171
                  }
                }
              }
            }
          }
        }
      }
      JOINT lCollar
      {
        OFFSET 2.68224 19.2634 -4.8768
        CHANNELS 3 Zrotation Xrotation Yrotation
        JOINT lShldr
        {
          OFFSET 8.77824 -1.95073 1.46304
          CHANNELS 3 Zrotation Xrotation Yrotation
          JOINT lForeArm
          {
            OFFSET 28.1742 -1.7115 0.48768
            CHANNELS 3 Zrotation Xrotation Yrotation
            JOINT lHand
            {
              OFFSET 22.5879 0.773209 7.07136
              CHANNELS 3 Zrotation Xrotation Yrotation
              JOINT lThumb1
              {
                OFFSET 1.2192 -0.487915 3.41376
                CHANNELS 3 Zrotation Xrotation Yrotation
                JOINT lThumb2
                {
                  OFFSET 3.37035 -0.52449 3.41376
                  CHANNELS 3 Zrotation Xrotation Yrotation
                  End Site
                  {
                    OFFSET 1.78271 -1.18214 1.43049
                  }
                }
              }
              JOINT lIndex1
              {
                OFFSET 7.75947 0.938293 5.60832
                CHANNELS 3 Zrotation Xrotation Yrotation
                JOINT lIndex2
                {
                  OFFSET 2.54057 -0.884171 1.56538
                  CHANNELS 3 Zrotation Xrotation Yrotation
                  End Site
                  {
                    OFFSET 1.62519 -0.234802 1.16502
                  }
                }
              }
              JOINT lMid1
              {
                OFFSET 8.24714 1.18213 3.41376
                CHANNELS 3 Zrotation Xrotation Yrotation
                JOINT lMid2
                {
                  OFFSET 3.10165 -0.590103 1.0647
                  CHANNELS 3 Zrotation Xrotation Yrotation
                  End Site
                  {
                    OFFSET 2.48547 -0.328903 0.83742
                  }
                }
              }
              JOINT lRing1
              {
                OFFSET 8.82822 0.546677 1.51678
                CHANNELS 3 Zrotation Xrotation Yrotation
                JOINT lRing2
                {
                  OFFSET 2.60934 -0.819778 -0.0198488
                  CHANNELS 3 Zrotation Xrotation Yrotation
                  End Site
                  {
                    OFFSET 2.33842 -0.294052 0.168128
                  }
                }
              }
              JOINT lPinky1
              {
                OFFSET 8.27202 -0.0477905 -0.4584
                CHANNELS 3 Zrotation Xrotation Yrotation
                JOINT lPinky2
                {
                  OFFSET 1.82734 -0.647385 -0.700984
                  CHANNELS 3 Zrotation Xrotation Yrotation
                  End Site
                  {
                    OFFSET 1.69225 -0.51767 -0.607171
                  }
                }
              }
            }
          }
        }
      }
    }
  }
  JOINT rButtock
  {
    OFFSET -8.77824 4.35084 1.2192
    CHANNELS 3 Zrotation Xrotation Yrotation
    JOINT rThigh
    {
      OFFSET 0 -1.70687 -2.19456
      CHANNELS 3 Zrotation Xrotation Yrotation
      JOINT rShin
      {
        OFFSET 0 -36.8199 0.73152
        CHANNELS 3 Zrotation Xrotation Yrotation
        JOINT rFoot
        {
          OFFSET 0.73152 -45.1104 -5.12064
          CHANNELS 3 Zrotation Xrotation Yrotation
          End Site
          {
            OFFSET -1.1221 -3.69964 12.103
          }
        }
      }
    }
  }
  JOINT lButtock
  {
    OFFSET 8.77824 4.35084 1.2192
    CHANNELS 3 Zrotation Xrotation Yrotation
    JOINT lThigh
    {
      OFFSET 0 -1.70687 -2.19456
      CHANNELS 3 Zrotation Xrotation Yrotation
      JOINT lShin
      {
        OFFSET 0 -36.8199 0.73152
        CHANNELS 3 Zrotation Xrotation Yrotation
        JOINT lFoot
        {
          OFFSET -0.73152 -45.1104 -5.12064
          CHANNELS 3 Zrotation Xrotation Yrotation
          End Site
          {
            OFFSET 1.1221 -3.69964 12.103
          }
        }
      }
    }
  }
}
MOTION
Frames:	8
Frame Time:	0.00833333
71.1139 85.5069 61.4414 -1.70024 0.0069417 0.032326 2.23578 -0.00046019 0.0604425 0.615807 0.00897254 0.106592 -7.52392e-014 2.38542e-015 1.73937e-016 -2.25732e-013 9.54166e-015 5.66847e-016 -0 0 0 -0 0 0 -3.76214e-014 2.06938e-016 1.98785e-016 -7.919e-013 4.33599e-015 3.97569e-016 -1.36455e-011 4.22875e-012 1.62208e-013 -1.56122e-010 -3.27928e-012 1.62208e-013 -3.68286e-010 2.05965e-012 7.69694e-013 -6.36026e-010 3.55904e-012 1.33186e-012 -3.6828e-010 2.05981e-012 7.63333e-013 7.73091 5.47488 0.417314 -3.68287e-010 2.05851e-012 7.72875e-013 2.90554 0.965183 0.102902 -3.68281e-010 2.05981e-012 7.65719e-013 10.2786 0.731801 0.0259123 -3.6829e-010 2.061e-012 7.69694e-013 2.22167 -0.733487 -0.20892 -3.77205e-014 2.08879e-016 0 -7.92884e-013 4.44159e-015 -9.93923e-016 -1.36354e-011 -3.93335e-012 1.62208e-013 -1.56102e-010 4.87947e-012 1.84472e-013 -3.68217e-010 2.05118e-012 7.66514e-013 -6.35885e-010 3.53996e-012 1.35889e-012 -3.68218e-010 2.05106e-012 7.69694e-013 -7.73091 5.47488 -0.417314 -3.68216e-010 2.05106e-012 7.66514e-013 -2.90554 0.965183 -0.102902 -3.68221e-010 2.05096e-012 7.71285e-013 -10.2786 0.731801 -0.0259123 -3.68212e-010 2.05305e-012 7.66514e-013 -2.22167 -0.733487 0.20892 -2.03217e-016 0 -3.88251e-019 2.21375 -7.80145 -0.224384 0.00520731 8.55923 0.135749 -0.55096 -0.766392 0.0464677 2.03217e-016 0 3.88251e-019 1.18613 -1.92859 -0.00257779 0.00907498 -2.07858 0.0748393 0.511419 3.99847 -0.140227 
72.5651 84.7202 58.6332 -1.21744 0.936492 0.544389 1.98561 -1.93458 0.0543354 0.362597 1.37367 0.132912 -1.35461 4.61964 -2.18718 3.11096 -6.13087 -3.80745 -0 0 0 -0 0 0 -3.19506e-014 -2.94051e-014 -1.0666e-014 22.0025 3.66745 -1.93891 -3.61713 -1.53954 5.75741 -0.000826578 -0.549761 -0.0772342 -1.96854e-010 -3.55639e-010 3.3851e-010 -3.39304e-010 -6.15409e-010 5.85094e-010 -1.96848e-010 -3.55639e-010 3.38502e-010 7.73091 5.47488 0.417314 -1.96855e-010 -3.5564e-010 3.38513e-010 2.90554 0.965183 0.102902 -1.96848e-010 -3.55639e-010 3.38508e-010 10.2786 0.731801 0.0259123 -1.96856e-010 -3.55637e-010 3.38512e-010 2.22167 -0.733487 -0.20892 -3.20494e-014 -2.94034e-014 -1.08932e-014 -19.9699 8.07216 -1.26226 3.81762 -1.66167 -6.03955 -0.00791958 -1.97502 0.276977 -1.88046e-010 -2.07974e-010 -2.9075e-010 -3.23998e-010 -3.58965e-010 -5.0208e-010 -1.8805e-010 -2.07973e-010 -2.90745e-010 -7.73091 5.47488 -0.417314 -1.88046e-010 -2.07975e-010 -2.90749e-010 -2.90554 0.965183 -0.102902 -1.88051e-010 -2.07976e-010 -2.90746e-010 -10.2786 0.731801 -0.0259123 -1.8804e-010 -2.07973e-010 -2.90749e-010 -2.22167 -0.733487 0.20892 -2.03217e-016 0 -3.88251e-019 0.782921 -11.391 3.68784 0.0731845 15.287 0.309396 -0.875889 -10.2476 -4.76357 2.03217e-016 0 3.88251e-019 2.58245 -7.66069 -0.599116 0.0822553 7.72473 0.0393599 -0.385016 -3.38491 -4.75467 
72.6623 84.7555 58.7047 -0.713776 1.92463 1.08053 1.71263 -3.97748 0.0496786 0.0965389 2.81392 0.161142 -2.40279 9.48122 -4.54901 5.50028 -12.5127 -7.98277 -0 0 0 -0 0 0 -2.56631e-014 -6.42788e-014 -2.39287e-014 45.5242 7.52059 -4.01245 -7.10625 -3.11514 11.8569 -0.00434271 -1.22803 -0.172544 -1.09171e-011 -7.73309e-010 7.30091e-010 -1.73334e-011 -1.3382e-009 1.26191e-009 -1.09111e-011 -7.7331e-010 7.30081e-010 7.73091 5.47488 0.417314 -1.09185e-011 -7.73311e-010 7.30092e-010 2.90554 0.965183 0.102902 -1.09093e-011 -7.7331e-010 7.30089e-010 10.2786 0.731801 0.0259123 -1.09182e-011 -7.73308e-010 7.30094e-010 2.22167 -0.733487 -0.20892 -2.57618e-014 -6.42775e-014 -2.41865e-014 -40.6812 16.5872 -2.67619 7.47257 -3.35526 -12.437 0.0045086 -4.05621 0.569958 1.0507e-011 -4.51392e-010 -6.31671e-010 1.97689e-011 -7.79076e-010 -1.09084e-009 1.05007e-011 -4.51391e-010 -6.31665e-010 -7.73091 5.47488 -0.417314 1.05061e-011 -4.51395e-010 -6.31669e-010 -2.90554 0.965183 -0.102902 1.0503e-011 -4.51397e-010 -6.31669e-010 -10.2786 0.731801 -0.0259123 1.05154e-011 -4.51393e-010 -6.3167e-010 -2.22167 -0.733487 0.20892 -2.03217e-016 0 -3.88251e-019 -0.193565 -15.1048 7.94613 0.0968626 22.402 0.510835 -3.04115 -20.0329 -10.3194 2.03217e-016 0 3.88251e-019 3.91535 -13.7255 -1.2493 0.173015 18.0848 0.00141288 -2.64052 -11.063 -9.79449 
72.6951 84.7696 58.7889 -0.301716 2.79467 1.57016 1.48403 -5.80281 0.0422447 -0.147598 4.10307 0.185912 -2.98171 13.7769 -6.73482 6.79947 -18.0595 -11.9539 -0 0 0 -0 0 0 -2.06089e-014 -8.8629e-014 -3.23957e-014 66.7624 10.9515 -5.91287 -9.93646 -4.4324 17.3194 -0.00692773 -1.64927 -0.231788 1.4601e-010 -1.07103e-009 1.01399e-009 2.5414e-010 -1.85335e-009 1.75262e-009 1.46016e-010 -1.07104e-009 1.01398e-009 7.73091 5.47488 0.417314 1.46009e-010 -1.07104e-009 1.01399e-009 2.90554 0.965183 0.102902 1.4602e-010 -1.07104e-009 1.01399e-009 10.2786 0.731801 0.0259123 1.46011e-010 -1.07103e-009 1.014e-009 2.22167 -0.733487 -0.20892 -2.07071e-014 -8.8628e-014 -3.26795e-014 -58.7565 24.1671 -4.11002 10.4183 -4.76387 -18.176 0.0337865 -5.92452 0.834897 1.72294e-010 -6.28025e-010 -8.73782e-010 2.99776e-010 -1.08398e-009 -1.50896e-009 1.72286e-010 -6.28023e-010 -8.73774e-010 -7.73091 5.47488 -0.417314 1.72292e-010 -6.28028e-010 -8.73779e-010 -2.90554 0.965183 -0.102902 1.7229e-010 -6.28031e-010 -8.73781e-010 -10.2786 0.731801 -0.0259123 1.72304e-010 -6.28026e-010 -8.73781e-010 -2.22167 -0.733487 0.20892 -2.03217e-016 0 -3.88251e-019 -0.549658 -18.2656 11.8975 0.0696497 28.7412 0.714959 -6.7951 -28.342 -16.1323 2.03217e-016 0 3.88251e-019 4.99869 -19.1166 -1.87985 0.266751 27.3314 -0.036665 -5.84548 -17.6317 -14.6624 
72.6574 84.7611 58.8672 -0.0837975 3.37035 1.94193 1.36669 -7.08417 0.0277459 -0.334205 5.01448 0.201727 -3.16166 16.7364 -8.31517 7.19162 -21.836 -14.9104 -0 0 0 -0 0 0 -1.86381e-014 -8.66707e-014 -2.88735e-014 81.7605 13.3745 -7.29051 -11.7591 -5.28105 21.1445 -0.00250149 -1.42796 -0.200729 2.30415e-010 -1.0689e-009 1.0287e-009 3.9937e-010 -1.84935e-009 1.77806e-009 2.30421e-010 -1.0689e-009 1.02868e-009 7.73091 5.47488 0.417314 2.30413e-010 -1.0689e-009 1.0287e-009 2.90554 0.965183 0.102902 2.30425e-010 -1.0689e-009 1.0287e-009 10.2786 0.731801 0.0259123 2.30415e-010 -1.0689e-009 1.0287e-009 2.22167 -0.733487 -0.20892 -1.87347e-014 -8.66699e-014 -2.91716e-014 -71.0717 29.4548 -5.29336 12.3116 -5.66957 -22.2146 0.0651044 -7.26115 1.02604 2.42165e-010 -6.37692e-010 -8.68867e-010 4.20385e-010 -1.10085e-009 -1.5005e-009 2.42156e-010 -6.37689e-010 -8.68858e-010 -7.73091 5.47488 -0.417314 2.42163e-010 -6.37695e-010 -8.68864e-010 -2.90554 0.965183 -0.102902 2.42161e-010 -6.37698e-010 -8.68867e-010 -10.2786 0.731801 -0.0259123 2.42175e-010 -6.37693e-010 -8.68867e-010 -2.22167 -0.733487 0.20892 -2.03217e-016 0 -3.88251e-019 -0.455345 -20.3107 14.7595 0.0192937 33.1418 0.875844 -10.6395 -33.7749 -20.9423 2.03217e-016 0 3.88251e-019 5.72551 -22.8306 -2.38211 0.340998 33.7941 -0.0687395 -8.79416 -21.9356 -18.3923 
72.6754 84.7472 58.9474 -0.120162 3.53464 2.15932 1.40027 -7.60893 -0.00419277 -0.437479 5.40101 0.202907 -3.14059 17.8758 -8.92663 7.17652 -23.3703 -16.0826 -0 0 0 -0 0 0 -2.12735e-014 -3.60161e-014 -3.212e-015 87.7822 14.4364 -7.87227 -12.4354 -5.59116 22.6365 0.00825356 -0.208151 -0.0294081 1.9008e-010 -5.26858e-010 5.47757e-010 3.2703e-010 -9.10531e-010 9.46941e-010 1.90086e-010 -5.2686e-010 5.47744e-010 7.73091 5.47488 0.417314 1.90079e-010 -5.26861e-010 5.47758e-010 2.90554 0.965183 0.102902 1.90089e-010 -5.2686e-010 5.47758e-010 10.2786 0.731801 0.0259123 1.9008e-010 -5.26858e-010 5.47765e-010 2.22167 -0.733487 -0.20892 -2.13656e-014 -3.60155e-014 -3.50358e-015 -75.7658 31.5731 -5.88378 13.0361 -6.01605 -23.8408 0.081182 -7.85076 1.11084 1.5687e-010 -3.5569e-010 -4.20775e-010 2.71872e-010 -6.14627e-010 -7.26768e-010 1.56862e-010 -3.55688e-010 -4.20763e-010 -7.73091 5.47488 -0.417314 1.5687e-010 -3.55692e-010 -4.20772e-010 -2.90554 0.965183 -0.102902 1.56867e-010 -3.55695e-010 -4.20776e-010 -10.2786 0.731801 -0.0259123 1.56879e-010 -3.5569e-010 -4.20778e-010 -2.22167 -0.733487 0.20892 -2.03217e-016 0 -3.88251e-019 -0.227482 -20.9661 15.9281 -0.00665446 34.8352 0.941307 -12.5262 -35.8573 -23.1194 2.03217e-016 0 3.88251e-019 6.0774 -24.1982 -2.65846 0.373015 36.355 -0.0849037 -10.1141 -23.4525 -19.9959 
72.6726 84.7314 59.0323 -0.334076 3.40528 2.26555 1.54224 -7.59303 -0.0481965 -0.481047 5.41246 0.193679 -3.0632 17.7321 -8.81138 7.08945 -23.3736 -15.8723 -0 0 0 -0 0 0 -2.71854e-014 4.88565e-014 3.80082e-014 87.3307 14.5357 -7.86562 -12.3535 -5.55188 22.4555 0.00919797 1.72016 0.241463 6.17506e-011 3.95105e-010 -2.81558e-010 1.01226e-010 6.86119e-010 -4.86237e-010 6.17555e-011 3.95103e-010 -2.81569e-010 7.73091 5.47488 0.417314 6.17501e-011 3.95103e-010 -2.81556e-010 2.90554 0.965183 0.102902 6.17581e-011 3.95103e-010 -2.81556e-010 10.2786 0.731801 0.0259123 6.17498e-011 3.95104e-010 -2.81549e-010 2.22167 -0.733487 -0.20892 -2.7271e-014 4.88572e-014 3.7738e-014 -75.1479 31.4399 -5.96626 12.994 -6.00531 -23.7352 0.0818302 -7.90704 1.11886 -3.79958e-011 1.31888e-010 3.39237e-010 -6.66817e-011 2.26188e-010 5.85592e-010 -3.80012e-011 1.3189e-010 3.39251e-010 -7.73091 5.47488 -0.417314 -3.79954e-011 1.31888e-010 3.39239e-010 -2.90554 0.965183 -0.102902 -3.79999e-011 1.31886e-010 3.39236e-010 -10.2786 0.731801 -0.0259123 -3.79896e-011 1.3189e-010 3.3923e-010 -2.22167 -0.733487 0.20892 -2.03217e-016 0 -3.88251e-019 -0.0179522 -20.677 15.8407 9.83845e-005 34.5948 0.927928 -12.4362 -35.7644 -23.0221 2.03217e-016 0 3.88251e-019 6.19915 -23.8917 -2.75404 0.37028 36.1292 -0.0868395 -9.95551 -23.1018 -19.9209 
72.6473 84.7133 59.1199 -0.621296 3.15825 2.30856 1.73611 -7.35294 -0.0849463 -0.503303 5.26752 0.18336 -2.9689 17.0838 -8.41035 6.99213 -22.7608 -15.1121 -0 0 0 -0 0 0 -3.39445e-014 1.28434e-013 7.6885e-014 84.2802 14.2257 -7.62215 -11.9785 -5.38006 21.6262 -0.00916689 3.77348 0.530773 -6.46454e-011 1.27689e-009 -1.0602e-009 -1.20635e-010 2.21304e-009 -1.83194e-009 -6.46411e-011 1.27689e-009 -1.06021e-009 7.73091 5.47488 0.417314 -6.46453e-011 1.27689e-009 -1.06019e-009 2.90554 0.965183 0.102902 -6.46392e-011 1.27689e-009 -1.06019e-009 10.2786 0.731801 0.0259123 -6.46472e-011 1.27689e-009 -1.06019e-009 2.22167 -0.733487 -0.20892 -3.4025e-014 1.28434e-013 7.66346e-014 -72.4236 30.4017 -5.83817 12.6459 -5.85187 -22.9346 0.0760297 -7.75486 1.0968 -2.34317e-010 6.09029e-010 1.06827e-009 -4.0771e-010 1.04908e-009 1.84449e-009 -2.3432e-010 6.09031e-010 1.06829e-009 -7.73091 5.47488 -0.417314 -2.34316e-010 6.09031e-010 1.06827e-009 -2.90554 0.965183 -0.102902 -2.34322e-010 6.0903e-010 1.06827e-009 -10.2786 0.731801 -0.0259123 -2.34314e-010 6.09033e-010 1.06826e-009 -2.22167 -0.733487 0.20892 -2.03217e-016 0 -3.88251e-019 0.184213 -20.0086 15.2298 0.0193268 33.5711 0.882954 -11.5077 -34.7789 -21.9631 2.03217e-016 0 3.88251e-019 6.24729 -22.9226 -2.75737 0.353393 34.7958 -0.0833124 -9.20505 -22.0204 -19.1625 
